PathFileType	4	(X/Y/Z)	Run_400 05
DataRate	CameraRate	NumFrames	NumMarkers	Units	OrigDataRate	OrigDataStartFrame	OrigNumFrames
120	120	4	42	mm	120	96	128
Frame#	Time	LASI			RASI			LPSI			RPSI			RTH1			RTH2			RTH3			LTH1			LTH2			LTH3			RTB1			RTB2			RTB3			LTB1			LTB2			LTB3			RCAL			RTOE			RMT5			LCAL			LTOE			LMT5			LACR			RACR			CLAV			C7			RUA1			RUA2			RUA3			RLEL			RMEL			LUA1			LUA2			LUA3			LLEL			LMEL			RFAsuperior			RFAradius			RFAulna			LFAsuperior			LFAradius			LFAulna			
		X1	Y1	Z1	X2	Y2	Z2	X3	Y3	Z3	X4	Y4	Z4	X5	Y5	Z5	X6	Y6	Z6	X7	Y7	Z7	X8	Y8	Z8	X9	Y9	Z9	X10	Y10	Z10	X11	Y11	Z11	X12	Y12	Z12	X13	Y13	Z13	X14	Y14	Z14	X15	Y15	Z15	X16	Y16	Z16	X17	Y17	Z17	X18	Y18	Z18	X19	Y19	Z19	X20	Y20	Z20	X21	Y21	Z21	X22	Y22	Z22	X23	Y23	Z23	X24	Y24	Z24	X25	Y25	Z25	X26	Y26	Z26	X27	Y27	Z27	X28	Y28	Z28	X29	Y29	Z29	X30	Y30	Z30	X31	Y31	Z31	X32	Y32	Z32	X33	Y33	Z33	X34	Y34	Z34	X35	Y35	Z35	X36	Y36	Z36	X37	Y37	Z37	X38	Y38	Z38	X39	Y39	Z39	X40	Y40	Z40	X41	Y41	Z41	X42	Y42	Z42	

96	0.891667	972.113619	1016.367116	-430.06725	941.899736	1039.298587	-174.401483	783.431525	1054.756695	-359.406715	769.470625	1054.098719	-277.63303	918.4107310000001	873.2060770000001	-121.641487	1013.542627	794.192516	-134.114012	995.403879	666.3330110000001	-177.783689	893.65901	795.778013	-470.87551	928.397533	667.9564329999999	-456.407031	849.168853	570.3721430000001	-434.074667	1120.664413	407.820426	-280.09733	1096.156358	338.851847	-216.836738	1087.65497	243.82485	-293.713139	737.7731199999999	429.478455	-364.390043	648.367624	463.673466	-411.126339	536.190646	455.92496	-344.521014	948.320714	102.569962	-312.878574	1181.935564	74.416692	-333.590061	1113.397609	52.579006	-237.255046	428.829951	574.921251	-311.856835	353.116284	354.709196	-328.953491	341.501446	440.088776	-402.356038	1011.845373	1499.286502	-447.627689	934.49144	1483.867637	-111.852287	1006.631527	1437.390805	-238.51648	891.401189	1528.138531	-292.464993	872.620947	1400.140892	-39.227871	848.231206	1312.681439	-38.290746	771.4445030000001	1332.01964	-31.858108	701.571176	1216.227216	16.383585	691.841407	1202.53533	-64.866905	998.041519	1413.515855	-529.57534	992.496183	1341.122872	-525.002765	897.737666	1346.844616	-551.419001	879.833815	1187.392672	-611.5536959999999	812.070874	1188.86676	-552.348178	797.804528	1172.663499	32.212228	957.737988	1109.405325	-32.787433	930.99838	1069.830494	21.112824	961.447596	1168.847468	-559.07313	1057.720598	1167.73812	-403.296659	1058.073538	1097.941965	-425.401169	
97	0.9	967.992739	1009.616091	-430.128763	937.721085	1035.132174	-173.807072	779.111184	1048.772076	-360.684124	765.070069	1047.845804	-279.93852	912.4666130000001	869.652187	-121.494961	1007.008782	789.234915	-132.229162	988.9298199999999	661.896678	-178.739793	898.065191	789.984864	-470.859839	938.759486	663.826655	-457.105388	865.328851	562.949854	-433.341102	1106.636485	403.771899	-280.957701	1080.130623	335.960324	-217.131792	1064.781067	241.580966	-293.705822	760.039509	424.937286	-366.151993	672.15981	461.772187	-412.743685	559.6120519999999	457.193491	-346.918567	916.632416	103.422732	-313.180805	1149.92612	73.20305500000001	-334.060951	1081.079552	52.163671	-237.434714	453.281082	579.059717	-314.771534	375.848391	359.59613	-333.944614	367.051662	445.342495	-407.654471	1010.466557	1491.535679	-450.052665	935.931206	1476.725897	-111.095106	1007.854492	1430.347364	-239.492707	892.514101	1523.615927	-291.305596	878.765258	1387.423557	-36.565212	856.134902	1300.17968	-36.076738	779.307849	1316.664476	-25.219052	715.256383	1199.339966	24.316654	703.388402	1184.873676	-56.194666	995.926653	1403.596252	-530.796849	988.68322	1331.37388	-525.7644	894.430539	1338.808396	-552.953031	873.43541	1180.373814	-612.736389	806.549288	1182.559724	-552.773208	812.327062	1157.159937	38.162492	971.858117	1097.400694	-31.977909	947.671993	1058.123394	23.126573	954.819769	1156.818352	-562.27864	1053.131063	1147.431842	-407.29761	1050.295537	1078.370592	-430.548555	
98	0.9083329999999999	963.7928429999999	1004.083282	-431.246374	934.373613	1032.767263	-172.797973	775.103342	1044.116934	-361.922642	761.467706	1043.259939	-281.964415	906.425687	865.885102	-121.714101	999.281821	783.412009	-131.391009	980.1301	656.666296	-180.238364	902.172172	785.270731	-471.0993	950.210909	661.171697	-457.503972	882.77485	557.182865	-432.922403	1090.42968	397.119998	-280.713597	1060.891604	330.177802	-217.211457	1040.133788	237.189407	-293.526378	783.731792	420.825009	-367.542964	697.2058479999999	459.811718	-414.441439	584.304728	457.521656	-349.088164	884.939835	104.084722	-313.55739	1118.183465	70.94055899999999	-333.64144	1048.68208	51.25908	-237.467413	477.472992	581.383976	-318.336171	400.686642	361.749522	-338.100878	393.967	447.128715	-412.71531	1008.321843	1484.599007	-452.162599	937.265297	1470.698153	-110.614461	1008.56801	1424.225835	-240.761187	893.666124	1519.767634	-290.544523	885.34153	1376.08117	-34.371779	864.709232	1288.702633	-34.484537	788.258732	1302.217365	-18.566789	730.384445	1183.175381	31.8677	716.18525	1167.733837	-47.734027	993.45644	1394.481361	-531.551117	984.843198	1322.480543	-525.950146	891.218914	1331.751283	-554.439205	867.149888	1174.000938	-613.53316	801.224232	1176.758521	-552.881224	828.423378	1142.237603	43.357084	986.692762	1085.427909	-32.179781	965.3397650000001	1047.058711	24.826107	947.533609	1145.003197	-564.85115	1047.884773	1127.321645	-411.521673	1041.995135	1059.072139	-436.080275	
99	0.916667	959.845659	999.658302	-432.932252	931.607375	1031.869092	-171.357308	771.506489	1040.597161	-362.817087	758.493126	1040.350379	-283.289083	900.387872	862.3497170000001	-121.892312	990.622159	777.244492	-130.967162	969.4724210000001	651.454873	-181.662306	906.35238	781.259292	-471.324727	962.9371640000001	659.759546	-457.632674	901.641167	553.008209	-432.997069	1072.212123	388.823047	-279.862221	1039.046215	322.689145	-217.323587	1014.012724	231.820472	-293.609458	808.579022	417.743685	-368.579116	723.132031	457.89395	-416.29263	609.869044	456.889487	-351.136609	852.94254	104.695224	-314.0288	1086.216903	68.50088700000001	-333.038107	1016.035583	50.483277	-237.476768	501.063926	581.9122159999999	-322.451008	427.249399	361.163635	-341.464409	421.552515	445.67966	-417.357499	1005.640242	1478.489259	-453.728664	938.839651	1465.551586	-110.533205	1008.855028	1418.910909	-242.251799	894.203696	1516.200671	-290.268408	891.7918079999999	1367.22046	-33.008256	874.012693	1278.903566	-33.335218	798.226356	1289.508625	-12.698716	747.036251	1168.462705	38.914836	730.1113360000001	1151.884214	-39.750224	990.413581	1386.797962	-531.947508	981.003784	1314.868076	-525.623013	888.078766	1326.036429	-555.619179	861.0732369999999	1168.573391	-613.894853	795.849954	1171.833659	-552.823749	846.522017	1129.077866	47.423549	1002.550507	1074.8264	-33.251417	984.107497	1037.493481	25.974447	939.9765169999999	1134.486755	-566.096625	1042.131651	1108.41982	-416.047777	1033.151982	1041.063624	-441.912983	
